<svg width="1702" height="516" viewBox="0 0 1702 516" fill="none" xmlns="http://www.w3.org/2000/svg">
<path d="M225.9 31.9416C230.967 27.2657 235.936 20.7389 243.536 20.7389C253.28 19.0828 260.199 26.7786 266.435 32.8184C319.344 86.0072 372.448 138.806 425.455 191.8C433.348 198.717 438.999 211.283 431.399 220.441C417.66 236.611 401.583 250.542 386.869 265.739C419.414 298.957 452.738 331.202 485.185 364.518C488.91 368.276 491 373.353 491 378.643C491 383.934 488.91 389.01 485.185 392.768C448.743 429.591 411.814 466.025 375.274 502.848C372.696 506.166 369.237 508.693 365.292 510.14C361.346 511.587 357.073 511.896 352.96 511.031C345.192 506.162 337.915 500.55 331.232 494.275C310.601 478.275 285.897 468.379 259.923 465.71C233.95 463.041 207.748 467.706 184.294 479.176C169.472 487.197 155.694 497.013 143.272 508.401C138.699 511.169 133.237 512.076 128.015 510.934C122.792 509.791 118.208 506.688 115.209 502.263C78.9619 466.122 42.812 430.371 7.05188 394.132C5.01106 392.441 3.33676 390.352 2.13141 387.991C0.926058 385.631 0.214987 383.05 0.0416931 380.406C-0.131601 377.761 0.236524 375.109 1.12355 372.612C2.01058 370.115 3.39786 367.825 5.20054 365.882C37.5503 332.468 72.1412 300.126 104.199 265.836C90.5571 251.711 76.2336 238.365 62.6896 224.142C60.6159 222.314 58.9552 220.065 57.8176 217.546C56.6801 215.027 56.0917 212.294 56.0917 209.53C56.0917 206.766 56.6801 204.033 57.8176 201.514C58.9552 198.995 60.6159 196.746 62.6896 194.918C117.19 140.69 171.594 86.3644 225.9 31.9416ZM104.978 210.114C114.722 219.174 123.686 228.429 132.846 237.878C152.334 218.395 171.237 198.912 190.724 180.111C200.91 170.394 213.497 163.56 227.194 160.308C240.892 157.055 255.208 157.502 268.676 161.602C293.815 168.81 311.159 189.949 328.114 208.361V211.283C319.831 219.856 311.939 232.423 300.538 235.832C284.753 224.337 274.717 204.172 254.742 199.301C247.569 197.665 240.086 198.015 233.098 200.315C226.109 202.616 219.881 206.778 215.084 212.355C159.544 267.882 104.069 323.409 48.6584 378.935C76.7208 407.381 105.27 435.534 133.43 463.979C165.383 438.872 204.845 425.223 245.485 425.223C286.126 425.223 325.588 438.872 357.54 463.979L442.41 379.033C414.25 350.977 386.285 322.727 357.93 294.768C338.442 314.252 318.954 334.514 298.784 353.802C286.938 364.382 272.225 371.221 256.498 373.457C240.771 375.694 224.734 373.227 210.407 366.369C190.335 356.627 176.888 337.144 160.811 322.434C170.555 312.693 179.714 303.536 189.263 294.184C205.828 308.504 218.495 331.884 242.465 334.319C260.101 336.267 274.035 323.506 285.046 311.427C318.565 277.721 352.181 244.112 385.895 210.602C340.293 162.381 292.256 116.596 245.875 69.4466C198.844 116.011 151.879 162.9 104.978 210.114Z" fill="white"/>
<path d="M674.615 296.598C731.247 296.598 761.969 263.293 768.49 222.067H729.54C722.975 246.838 702.799 263.031 673.477 263.031C634.483 263.031 609.756 228.632 609.756 191.344C609.756 152.087 637.371 125.653 672.908 125.653C706.782 125.653 724.419 144.691 730.065 168.28H768.49C762.801 119.395 724.419 91.7793 670.37 91.7793C609.756 91.7793 572.206 137.557 572.206 194.189C572.206 250.514 606.648 296.598 674.615 296.598ZM783.589 194.189C783.589 259.617 829.367 296.598 886.83 296.598C945.737 296.598 991.253 259.617 991.253 194.189C991.253 125.653 945.737 91.7793 886.83 91.7793C829.367 91.7793 783.589 128.454 783.589 194.189ZM822.277 194.189C822.277 149.811 850.418 127.885 886.83 127.885C924.38 127.885 952.827 149.811 952.827 194.189C952.827 238.566 924.38 260.186 886.83 260.186C850.418 260.186 822.277 238.566 822.277 194.189ZM1019.13 94.624V293.753H1101.32C1161.94 293.753 1188.37 250.514 1188.37 194.189C1188.37 137.557 1161.94 94.624 1101.32 94.624H1019.13ZM1088.8 131.912C1122.68 131.912 1147.97 144.953 1147.97 194.189C1147.97 243.687 1122.94 256.203 1089.11 256.203H1057.82V131.912H1088.8ZM1219.09 293.753H1257.52V94.624H1219.09V293.753ZM1296.47 293.753H1333.76V158.345H1335.16L1431.04 293.753H1468.59V94.624H1431.88V231.739H1430.48L1334.32 94.624H1296.47V293.753ZM1667.15 263.862L1665.71 293.753H1701.55C1701.55 292.309 1701.55 189.068 1701.55 187.624H1595.73V215.502H1666.28C1663.43 239.704 1638.71 264.737 1602.56 264.737C1558.49 264.737 1536.3 234.015 1536.3 194.189C1536.3 155.501 1563.04 125.653 1602.86 125.653C1633.28 125.653 1652.93 139.877 1660.33 162.634H1700.99C1691.31 112.83 1656.91 91.7793 1602.56 91.7793C1539.14 91.7793 1499.01 131.605 1499.01 194.189C1499.01 256.466 1535.16 296.598 1598.58 296.598C1643.83 296.598 1661.16 274.672 1665.71 263.862H1667.15Z" fill="white"/>
<path d="M572.206 309.728V343.505H634.16V515.28H673.797V343.505H735.45V309.728H572.206ZM756.906 515.28H908.991V476.505H796.844V428.38H899.599V391.931H796.844V348.201H908.991V309.728H756.906V515.28ZM933.678 515.28H972.152V383.745H973.617L1028.81 488.568H1056.12L1115.15 383.745H1116.61V515.28H1156.25V309.728H1116.05L1044.96 441.004H1043.8L973.315 309.728H933.678V515.28ZM1276.97 445.7C1329.83 445.7 1351.55 413.387 1351.55 375.775C1351.55 338.809 1332.76 309.728 1276.97 309.728H1195.93V515.28H1235.57V445.7H1276.97ZM1270.21 344.367C1298.38 344.367 1309.84 355.526 1309.84 376.981C1309.84 398.394 1296.06 411.017 1270.51 411.017H1235.57V344.367H1270.21ZM1375.93 515.28H1525.39V476.505H1415.87V309.728H1375.93V515.28ZM1549.47 515.28H1701.56V476.505H1589.41V428.38H1692.17V391.931H1589.41V348.201H1701.56V309.728H1549.47V515.28Z" fill="white"/>
<path d="M1046.35 24.2329H607.5V31.2917H1046.35V24.2329Z" fill="white"/>
<path d="M1666.27 24.2329H1227.41V31.2917H1666.27V24.2329Z" fill="white"/>
<path d="M1084.29 55.5529V5.92941H1067.56V0H1108.22V5.92941H1091.42V55.5529H1084.29ZM1118.17 55.5529V0H1125.23V23.2941H1151.06V0H1158.19V55.5529H1151.06V29.3647H1125.23V55.5529H1118.17ZM1173.44 55.5529V0H1205.42V5.92941H1180.43V23.3647H1201.53V29.3647H1180.43V49.5529H1206.26V55.5529H1173.44Z" fill="white"/>
</svg>
