<svg width="495" height="496" viewBox="0 0 495 496" fill="none" xmlns="http://www.w3.org/2000/svg">
<g clip-path="url(#clip0_1322_1288)">
<path d="M225.9 11.9418C230.967 7.26583 235.936 0.738997 243.536 0.738997C253.28 -0.917065 260.199 6.77875 266.435 12.8185C319.344 66.0073 372.448 118.807 425.455 171.801C433.348 178.717 438.999 191.284 431.399 200.441C417.66 216.612 401.583 230.542 386.869 245.739C419.414 278.957 452.738 311.202 485.185 344.518C488.91 348.276 491 353.353 491 358.643C491 363.934 488.91 369.01 485.185 372.769C448.743 409.592 411.814 446.025 375.274 482.848C372.696 486.166 369.237 488.693 365.292 490.14C361.346 491.587 357.073 491.896 352.96 491.031C345.192 486.162 337.915 480.55 331.232 474.275C310.601 458.275 285.897 448.379 259.923 445.71C233.95 443.041 207.748 447.706 184.294 459.176C169.472 467.197 155.694 477.013 143.272 488.401C138.699 491.169 133.237 492.076 128.015 490.934C122.792 489.792 118.208 486.688 115.209 482.263C78.9619 446.122 42.812 410.371 7.05188 374.132C5.01106 372.441 3.33676 370.352 2.13141 367.991C0.926058 365.631 0.214988 363.05 0.0416931 360.406C-0.131601 357.761 0.236524 355.109 1.12355 352.612C2.01058 350.115 3.39786 347.825 5.20054 345.882C37.5503 312.468 72.1412 280.126 104.199 245.836C90.5571 231.711 76.2336 218.365 62.6896 204.142C60.6159 202.314 58.9552 200.066 57.8176 197.546C56.6801 195.027 56.0917 192.294 56.0917 189.53C56.0917 186.766 56.6801 184.033 57.8176 181.514C58.9552 178.995 60.6159 176.746 62.6896 174.918C117.19 120.69 171.594 66.3645 225.9 11.9418ZM104.978 190.115C114.722 199.174 123.686 208.429 132.846 217.878C152.334 198.395 171.237 178.912 190.725 160.111C200.91 150.394 213.497 143.56 227.194 140.308C240.892 137.055 255.208 137.502 268.676 141.602C293.815 148.81 311.159 169.95 328.114 188.361V191.284C319.831 199.856 311.939 212.423 300.538 215.832C284.753 204.337 274.717 184.172 254.742 179.301C247.569 177.665 240.086 178.015 233.098 180.315C226.109 182.616 219.881 186.778 215.084 192.355C159.544 247.882 104.069 303.409 48.6584 358.936C76.7208 387.381 105.27 415.534 133.43 443.979C165.383 418.872 204.845 405.223 245.485 405.223C286.126 405.223 325.588 418.872 357.54 443.979L442.41 359.033C414.25 330.977 386.285 302.727 357.93 274.769C338.442 294.252 318.954 314.514 298.784 333.802C286.938 344.382 272.225 351.221 256.498 353.457C240.771 355.694 224.734 353.227 210.407 346.369C190.335 336.627 176.888 317.144 160.811 302.435C170.555 292.693 179.714 283.536 189.263 274.184C205.828 288.504 218.495 311.884 242.465 314.319C260.101 316.268 274.035 303.506 285.046 291.427C318.565 257.721 352.181 224.113 385.895 190.602C340.293 142.381 292.256 96.5958 245.875 49.4467C198.844 96.0113 151.879 142.901 104.978 190.115Z" fill="white"/>
</g>
<defs>
<clipPath id="clip0_1322_1288">
<rect width="495" height="495" fill="white" transform="translate(0 0.510742)"/>
</clipPath>
</defs>
</svg>
